<svg width="72" height="76" viewBox="0 0 72 76" fill="none" xmlns="http://www.w3.org/2000/svg">
<mask id="mask0_1_109" style="mask-type:luminance" maskUnits="userSpaceOnUse" x="0" y="0" width="72" height="76">
<path d="M0 0H72V76H0V0Z" fill="white"/>
</mask>
<g mask="url(#mask0_1_109)">
<mask id="mask1_1_109" style="mask-type:luminance" maskUnits="userSpaceOnUse" x="-12" y="-10" width="95" height="96">
<path d="M40.151 -9.10938L83 43.3021L31.3594 85.5208L-11.4896 33.1094L40.151 -9.10938Z" fill="white"/>
</mask>
<g mask="url(#mask1_1_109)">
<mask id="mask2_1_109" style="mask-type:luminance" maskUnits="userSpaceOnUse" x="-12" y="-10" width="95" height="96">
<path d="M40.151 -9.10938L83 43.3021L31.3594 85.5208L-11.4896 33.1094L40.151 -9.10938Z" fill="white"/>
</mask>
<g mask="url(#mask2_1_109)">
<path d="M50.2552 70.5729C47.7865 72.5938 44.9896 74.0677 41.9427 74.9531C39.0052 75.8073 35.9583 76.0833 32.901 75.7813C29.8385 75.4688 26.9115 74.5938 24.2083 73.1719C21.3958 71.6927 18.9479 69.6927 16.9323 67.2292L1.99479 48.9635C0.838544 47.5469 1.04688 45.4635 2.46354 44.3073C3.88021 43.151 5.96354 43.3594 7.1198 44.776L21.9479 62.9115C27.9219 70.2188 38.7083 71.4323 46.0313 65.4844C53.349 59.5313 54.4479 48.7344 48.4792 41.4375L43.8073 35.7188L31.9375 45.4219L42.651 58.526C43.8073 59.9375 43.599 62.0208 42.1823 63.1771C40.7708 64.3333 38.6875 64.125 37.5313 62.7135L18.375 39.2813C16.3594 36.8177 14.8854 34.0208 14 30.974C13.1406 28.0365 12.8646 24.9948 13.1719 21.9323C13.4792 18.8698 14.3542 15.9427 15.7813 13.2344C17.2552 10.4219 19.2552 7.97396 21.7188 5.95834C24.1823 3.94271 26.9792 2.47396 30.0313 1.58334C32.9635 0.729169 36.0104 0.447919 39.0729 0.75521C42.1354 1.0625 45.0573 1.94271 47.7656 3.36459C50.5833 4.83854 53.0313 6.83854 55.0469 9.30208L69.9792 27.5729C71.1354 28.9844 70.9271 31.0677 69.5104 32.224C68.099 33.3854 66.0156 33.1719 64.8594 31.7604L50.0313 13.6198C44.0573 6.31771 33.2656 5.09896 25.9427 11.0521C18.625 17 17.5313 27.8021 23.4948 35.099L27.7448 40.2969L39.6094 30.5938L29.0208 17.6406C27.8646 16.224 28.0729 14.1406 29.4896 12.9844C30.9063 11.8281 32.9844 12.0365 34.1458 13.4531L53.599 37.25C55.6146 39.7135 57.0885 42.5104 57.9792 45.5625C58.8333 48.5 59.1094 51.5417 58.8021 54.6042C58.4948 57.6667 57.6198 60.5938 56.1979 63.3021C54.7188 66.1094 52.7188 68.5573 50.2552 70.5729Z" fill="#5E17EB"/>
</g>
</g>
</g>
</svg>
