<svg width="145" height="27" viewBox="0 0 145 27" fill="none" xmlns="http://www.w3.org/2000/svg">
<path d="M0.677081 0.635418H4.0625V10.401H18.6771V0.635418H22.0625V23.3646H18.6771V11.9375H4.0625V23.3646H0.677081V0.635418Z" fill="black"/>
<path d="M32.5781 7.45833H35.5677V10.8594C35.9844 9.67188 36.6406 8.75521 37.5417 8.09896C38.4427 7.45313 39.526 7.125 40.8073 7.125C41.3073 7.125 41.6667 7.16667 41.9063 7.25L41.6146 9.32292C41.2969 9.15625 40.8385 9.07292 40.2448 9.07292C38.776 9.07292 37.625 9.69271 36.7969 10.9219C35.974 12.1563 35.5677 13.7187 35.5677 15.6094V23.3646H32.5781V7.45833Z" fill="black"/>
<path d="M51.4219 22.349C52.8854 22.349 54.1302 21.9948 55.1406 21.2917C56.151 20.5781 56.7969 19.6042 57.0729 18.3698H59.526C59.1094 20.026 58.1615 21.3333 56.6823 22.2865C55.2083 23.2292 53.4167 23.6979 51.2969 23.6979C49.5104 23.6979 47.9479 23.3646 46.6198 22.7031C45.2917 22.026 44.2552 21.0625 43.5208 19.8177C42.8021 18.5625 42.4427 17.1146 42.4427 15.4635C42.4427 13.776 42.7969 12.3125 43.5052 11.0677C44.2187 9.8125 45.25 8.84375 46.5781 8.16146C47.9219 7.47396 49.474 7.125 51.2344 7.125C53.8802 7.125 55.9427 7.84896 57.4271 9.28125C58.9115 10.7083 59.6823 12.7188 59.7552 15.3177H45.4375V15.4635C45.4375 17.6094 45.9531 19.2969 46.9948 20.526C48.0312 21.7448 49.5104 22.349 51.4219 22.349ZM51.2969 8.45313C49.6615 8.45313 48.3437 8.94271 47.349 9.90625C46.349 10.875 45.7448 12.2292 45.5417 13.9688H56.9271C56.6823 12.2031 56.0677 10.8385 55.099 9.88542C54.1458 8.93229 52.875 8.45313 51.2969 8.45313Z" fill="black"/>
<path d="M80.0052 23.6979C76.7188 23.6979 74.1302 23.0677 72.25 21.7917C70.3646 20.5052 69.3229 18.6771 69.1302 16.3125H72.0625C72.2135 18.3073 72.9375 19.7708 74.224 20.7135C75.5156 21.6563 77.4167 22.1198 79.9427 22.1198C82.1719 22.1198 83.875 21.7396 85.0521 20.9583C86.2448 20.1875 86.8385 19.0729 86.8385 17.6198C86.8385 16.75 86.6146 16.026 86.1563 15.4427C85.6979 14.8646 84.9167 14.3438 83.8281 13.8854C82.7292 13.4323 81.1927 13.0104 79.2135 12.6198C76.0625 12.0156 73.6927 11.2292 72.1042 10.2552C70.5104 9.29167 69.7135 7.9323 69.7135 6.19271C69.7135 4.24479 70.6198 2.78125 72.4375 1.79688C74.2656 0.802086 76.6667 0.302086 79.651 0.302086C82.651 0.302086 84.9948 0.843752 86.6771 1.92188C88.3646 2.98959 89.3385 4.46875 89.6042 6.38021H86.6979C86.375 4.80209 85.6146 3.65625 84.4115 2.9375C83.2031 2.21875 81.5417 1.85938 79.4219 1.85938C77.3542 1.85938 75.7813 2.19792 74.7031 2.875C73.6302 3.53646 73.1042 4.46875 73.1042 5.67188C73.1042 6.38021 73.3021 6.97917 73.7031 7.47917C74.1198 7.97396 74.8385 8.43229 75.8646 8.84896C76.9063 9.26042 78.3802 9.66667 80.2917 10.0521C82.6302 10.5208 84.5104 11.0417 85.9271 11.6042C87.349 12.1771 88.4271 12.9063 89.1458 13.8021C89.8646 14.7083 90.2292 15.849 90.2292 17.2292C90.2292 19.2604 89.3021 20.849 87.4635 21.9948C85.6354 23.1302 83.1458 23.6979 80.0052 23.6979Z" fill="black"/>
<path d="M91.099 7.45833H94.2552L99.3281 19.2396L103.964 7.125H105.417L110.573 19.5313L115.807 7.45833H117.641L110.635 23.6979H109.219L104.151 11.5833L99.5365 23.6979H98.2031L91.099 7.45833Z" fill="black"/>
<path d="M121.109 5.46875C120.458 5.46875 119.927 5.29167 119.51 4.92709C119.104 4.55209 118.906 4.06771 118.906 3.45313C118.906 2.84896 119.104 2.36459 119.51 2.00521C119.927 1.63021 120.458 1.44271 121.109 1.44271C121.76 1.44271 122.297 1.63021 122.714 2.00521C123.125 2.36459 123.333 2.84896 123.333 3.45313C123.333 4.06771 123.125 4.55209 122.714 4.92709C122.297 5.29167 121.76 5.46875 121.109 5.46875ZM119.615 7.45834H122.609V23.3646H119.615V7.45834Z" fill="black"/>
<path d="M127.979 8.78646H124.698L125.089 7.45834H127.979V5.73438C127.979 4.30209 128.385 3.20834 129.208 2.45834C130.036 1.70313 131.245 1.31771 132.823 1.31771C133.995 1.31771 134.953 1.51563 135.693 1.90104L135.276 3.26563C134.818 2.85417 134.24 2.64584 133.552 2.64584C132.745 2.64584 132.115 2.89063 131.656 3.36979C131.203 3.85938 130.974 4.53125 130.974 5.40625V7.45834H135.401L135.047 8.78646H130.974V23.3646H127.979V8.78646Z" fill="black"/>
<path d="M141.453 23.6979C140.042 23.6979 138.984 23.3125 138.297 22.5365C137.599 21.75 137.255 20.5417 137.255 18.9063V8.78646H134.385L134.844 7.45833H137.297L138.458 2.97917H140.25V7.45833H144.719L144.281 8.78646H140.25V19.3646C140.25 21.3438 140.984 22.3281 142.474 22.3281C143.245 22.3281 144 22.1198 144.74 21.7083V23.099C143.833 23.4948 142.74 23.6979 141.453 23.6979Z" fill="black"/>
<mask id="mask0_1_93" style="mask-type:luminance" maskUnits="userSpaceOnUse" x="26" y="1" width="7" height="7">
<path d="M26.1979 1H32.849V7.46354H26.1979V1Z" fill="white"/>
</mask>
<g mask="url(#mask0_1_93)">
<mask id="mask1_1_93" style="mask-type:luminance" maskUnits="userSpaceOnUse" x="25" y="0" width="9" height="9">
<path d="M30.6562 0.427086L33.7917 5.20313L29.0052 8.32813L25.8698 3.55209L30.6562 0.427086Z" fill="white"/>
</mask>
<g mask="url(#mask1_1_93)">
<mask id="mask2_1_93" style="mask-type:luminance" maskUnits="userSpaceOnUse" x="26" y="1" width="7" height="7">
<path d="M32.224 2.8125C31.3594 1.49479 29.5833 1.125 28.2604 1.98438C26.9427 2.85417 26.5729 4.61979 27.4375 5.94271C28.3021 7.26042 30.0781 7.63021 31.3958 6.76042C32.7187 5.90104 33.0885 4.13542 32.224 2.8125Z" fill="white"/>
</mask>
<g mask="url(#mask2_1_93)">
<path d="M30.6562 0.427086L33.7917 5.20313L29.0052 8.32813L25.8698 3.55209L30.6562 0.427086Z" fill="#5E17EB"/>
</g>
</g>
</g>
<mask id="mask3_1_93" style="mask-type:luminance" maskUnits="userSpaceOnUse" x="23" y="7" width="9" height="20">
<path d="M23.5417 7.46354H31.3333V26.0469H23.5417V7.46354Z" fill="white"/>
</mask>
<g mask="url(#mask3_1_93)">
<mask id="mask4_1_93" style="mask-type:luminance" maskUnits="userSpaceOnUse" x="24" y="7" width="7" height="19">
<path d="M27.2865 7.47917L30.9219 8.13021L27.8698 25.1615L24.2292 24.5104L27.2865 7.47917Z" fill="white"/>
</mask>
<g mask="url(#mask4_1_93)">
<path d="M27.2865 7.47917L30.9219 8.13021L27.8698 25.1667L24.2292 24.5104L27.2865 7.47917Z" fill="#5E17EB"/>
</g>
</g>
<mask id="mask5_1_93" style="mask-type:luminance" maskUnits="userSpaceOnUse" x="24" y="6" width="8" height="7">
<path d="M24.8698 6.33334H31.3333V12.7708H24.8698V6.33334Z" fill="white"/>
</mask>
<g mask="url(#mask5_1_93)">
<mask id="mask6_1_93" style="mask-type:luminance" maskUnits="userSpaceOnUse" x="23" y="5" width="8" height="7">
<path d="M30.3281 8.04688L27.0885 11.6823L23.901 8.85417L27.1458 5.22396L30.3281 8.04688Z" fill="white"/>
</mask>
<g mask="url(#mask6_1_93)">
<mask id="mask7_1_93" style="mask-type:luminance" maskUnits="userSpaceOnUse" x="25" y="7" width="6" height="5">
<path d="M25.5312 7.03646L27.0937 11.6771L30.3281 8.04688L25.5312 7.03646Z" fill="white"/>
</mask>
<g mask="url(#mask7_1_93)">
<path d="M30.3281 8.04688L27.0885 11.6823L23.901 8.85417L27.1458 5.22396L30.3281 8.04688Z" fill="#5E17EB"/>
</g>
</g>
</g>
</svg>
