<svg width="606" height="327" viewBox="0 0 606 327" fill="none" xmlns="http://www.w3.org/2000/svg">
<g filter="url(#filter0_f_46_205)">
<ellipse cx="303.241" cy="321.259" rx="258.532" ry="2.74112" fill="black"/>
</g>
<path d="M71.9914 28C71.9914 13.0883 84.0797 1 98.9914 1H509.206C524.117 1 536.206 13.0883 536.206 28V299.716C536.206 301.373 534.862 302.716 533.206 302.716H74.9914C73.3346 302.716 71.9914 301.373 71.9914 299.716V28Z" fill="#1A202C" stroke="#4A5568" stroke-width="2"/>
<path d="M73.8481 24.741C73.8481 12.5908 83.6979 2.74103 95.8481 2.74103H512.349C524.499 2.74103 534.349 12.5908 534.349 24.741V292.203H73.8481V24.741Z" fill="black"/>
<rect x="82.9896" y="16.9949" width="439.932" height="263.147" fill="white"/>
<path d="M243.687 145.084V162.538H239.996V145.084H243.687ZM250.285 154.97V162.538H246.655V149.447H250.115V151.757H250.268C250.558 150.995 251.044 150.393 251.726 149.95C252.408 149.501 253.234 149.277 254.206 149.277C255.115 149.277 255.908 149.476 256.584 149.873C257.26 150.271 257.785 150.839 258.16 151.578C258.535 152.311 258.723 153.186 258.723 154.203V162.538H255.092V154.851C255.098 154.049 254.893 153.424 254.479 152.976C254.064 152.521 253.493 152.294 252.765 152.294C252.277 152.294 251.845 152.399 251.47 152.609C251.101 152.819 250.811 153.126 250.601 153.53C250.396 153.927 250.291 154.407 250.285 154.97ZM272.476 153.18L269.153 153.385C269.096 153.101 268.974 152.845 268.786 152.618C268.599 152.385 268.351 152.2 268.045 152.064C267.743 151.922 267.383 151.851 266.962 151.851C266.4 151.851 265.925 151.97 265.539 152.209C265.153 152.441 264.959 152.754 264.959 153.146C264.959 153.459 265.084 153.723 265.334 153.939C265.584 154.155 266.013 154.328 266.621 154.459L268.991 154.936C270.263 155.197 271.212 155.618 271.837 156.197C272.462 156.777 272.775 157.538 272.775 158.481C272.775 159.339 272.522 160.092 272.016 160.74C271.516 161.388 270.829 161.893 269.954 162.257C269.084 162.615 268.082 162.794 266.945 162.794C265.212 162.794 263.832 162.433 262.803 161.711C261.78 160.984 261.181 159.995 261.005 158.745L264.576 158.558C264.684 159.086 264.945 159.49 265.36 159.768C265.775 160.041 266.306 160.177 266.954 160.177C267.59 160.177 268.101 160.055 268.488 159.811C268.88 159.561 269.079 159.24 269.084 158.848C269.079 158.518 268.939 158.248 268.667 158.038C268.394 157.822 267.974 157.657 267.405 157.544L265.138 157.092C263.86 156.836 262.908 156.393 262.283 155.763C261.664 155.132 261.354 154.328 261.354 153.351C261.354 152.51 261.582 151.785 262.036 151.177C262.496 150.569 263.141 150.101 263.971 149.771C264.806 149.441 265.783 149.277 266.903 149.277C268.556 149.277 269.857 149.626 270.806 150.325C271.76 151.024 272.317 151.976 272.476 153.18ZM281.027 162.794C279.68 162.794 278.521 162.521 277.55 161.976C276.584 161.424 275.839 160.646 275.317 159.64C274.794 158.629 274.533 157.433 274.533 156.052C274.533 154.706 274.794 153.524 275.317 152.507C275.839 151.49 276.575 150.697 277.524 150.129C278.479 149.561 279.598 149.277 280.882 149.277C281.746 149.277 282.55 149.416 283.294 149.694C284.044 149.967 284.697 150.379 285.254 150.93C285.817 151.481 286.254 152.174 286.567 153.01C286.879 153.839 287.035 154.811 287.035 155.924V156.922H275.981V154.672H283.618C283.618 154.149 283.504 153.686 283.277 153.282C283.05 152.879 282.734 152.564 282.331 152.336C281.933 152.103 281.47 151.987 280.942 151.987C280.39 151.987 279.902 152.115 279.476 152.37C279.055 152.62 278.726 152.959 278.487 153.385C278.248 153.805 278.126 154.274 278.121 154.791V156.93C278.121 157.578 278.24 158.138 278.479 158.609C278.723 159.081 279.067 159.444 279.51 159.7C279.953 159.956 280.479 160.084 281.086 160.084C281.49 160.084 281.859 160.027 282.194 159.913C282.53 159.799 282.817 159.629 283.055 159.402C283.294 159.174 283.476 158.896 283.601 158.566L286.959 158.788C286.788 159.595 286.439 160.299 285.91 160.902C285.388 161.498 284.711 161.964 283.882 162.299C283.058 162.629 282.106 162.794 281.027 162.794ZM289.405 162.538V149.447H292.925V151.731H293.061C293.3 150.919 293.7 150.305 294.263 149.89C294.825 149.47 295.473 149.26 296.206 149.26C296.388 149.26 296.584 149.271 296.794 149.294C297.004 149.316 297.189 149.348 297.348 149.388V152.609C297.177 152.558 296.942 152.513 296.64 152.473C296.339 152.433 296.064 152.413 295.814 152.413C295.28 152.413 294.802 152.53 294.382 152.763C293.967 152.99 293.638 153.308 293.393 153.717C293.155 154.126 293.035 154.598 293.035 155.132V162.538H289.405ZM306.844 149.447V152.174H298.961V149.447H306.844ZM300.751 146.311H304.381V158.515C304.381 158.851 304.432 159.112 304.535 159.299C304.637 159.481 304.779 159.609 304.961 159.683C305.148 159.757 305.364 159.794 305.609 159.794C305.779 159.794 305.949 159.78 306.12 159.751C306.29 159.717 306.421 159.691 306.512 159.674L307.083 162.376C306.901 162.433 306.645 162.498 306.316 162.572C305.986 162.652 305.586 162.7 305.114 162.717C304.239 162.751 303.472 162.635 302.813 162.368C302.16 162.101 301.651 161.686 301.287 161.123C300.924 160.561 300.745 159.851 300.751 158.993V146.311ZM313.81 145.084H317.943L321.923 152.601H322.094L326.074 145.084H330.207L323.841 156.368V162.538H320.176V156.368L313.81 145.084ZM335.327 162.794C334.003 162.794 332.859 162.513 331.893 161.95C330.932 161.382 330.191 160.592 329.668 159.581C329.145 158.564 328.884 157.385 328.884 156.044C328.884 154.691 329.145 153.51 329.668 152.498C330.191 151.481 330.932 150.691 331.893 150.129C332.859 149.561 334.003 149.277 335.327 149.277C336.651 149.277 337.793 149.561 338.753 150.129C339.719 150.691 340.464 151.481 340.986 152.498C341.509 153.51 341.77 154.691 341.77 156.044C341.77 157.385 341.509 158.564 340.986 159.581C340.464 160.592 339.719 161.382 338.753 161.95C337.793 162.513 336.651 162.794 335.327 162.794ZM335.344 159.981C335.947 159.981 336.449 159.811 336.853 159.47C337.256 159.123 337.56 158.652 337.765 158.055C337.975 157.459 338.08 156.78 338.08 156.018C338.08 155.257 337.975 154.578 337.765 153.981C337.56 153.385 337.256 152.913 336.853 152.566C336.449 152.22 335.947 152.047 335.344 152.047C334.736 152.047 334.225 152.22 333.81 152.566C333.401 152.913 333.091 153.385 332.881 153.981C332.677 154.578 332.574 155.257 332.574 156.018C332.574 156.78 332.677 157.459 332.881 158.055C333.091 158.652 333.401 159.123 333.81 159.47C334.225 159.811 334.736 159.981 335.344 159.981ZM352.526 156.964V149.447H356.157V162.538H352.671V160.16H352.535C352.239 160.927 351.748 161.544 351.06 162.01C350.378 162.476 349.546 162.709 348.563 162.709C347.688 162.709 346.918 162.51 346.253 162.112C345.589 161.714 345.069 161.149 344.694 160.416C344.324 159.683 344.137 158.805 344.131 157.782V149.447H347.762V157.135C347.768 157.907 347.975 158.518 348.384 158.967C348.793 159.416 349.341 159.64 350.029 159.64C350.466 159.64 350.876 159.541 351.256 159.342C351.637 159.138 351.944 158.836 352.177 158.439C352.415 158.041 352.532 157.549 352.526 156.964ZM359.061 162.538V149.447H362.581V151.731H362.717C362.956 150.919 363.356 150.305 363.919 149.89C364.481 149.47 365.129 149.26 365.862 149.26C366.044 149.26 366.24 149.271 366.45 149.294C366.66 149.316 366.845 149.348 367.004 149.388V152.609C366.834 152.558 366.598 152.513 366.297 152.473C365.996 152.433 365.72 152.413 365.47 152.413C364.936 152.413 364.459 152.53 364.038 152.763C363.623 152.99 363.294 153.308 363.05 153.717C362.811 154.126 362.692 154.598 362.692 155.132V162.538H359.061ZM239.012 184.538H232.824V167.084H239.063C240.819 167.084 242.33 167.433 243.597 168.132C244.864 168.825 245.839 169.822 246.52 171.123C247.208 172.424 247.552 173.981 247.552 175.794C247.552 177.612 247.208 179.174 246.52 180.481C245.839 181.788 244.859 182.791 243.58 183.49C242.307 184.189 240.785 184.538 239.012 184.538ZM236.515 181.376H238.859C239.949 181.376 240.867 181.183 241.611 180.797C242.361 180.405 242.924 179.799 243.299 178.981C243.68 178.157 243.87 177.095 243.87 175.794C243.87 174.504 243.68 173.45 243.299 172.632C242.924 171.814 242.364 171.211 241.62 170.825C240.876 170.439 239.958 170.245 238.867 170.245H236.515V181.376ZM256.183 184.794C254.836 184.794 253.677 184.521 252.706 183.976C251.74 183.424 250.996 182.646 250.473 181.64C249.95 180.629 249.689 179.433 249.689 178.052C249.689 176.706 249.95 175.524 250.473 174.507C250.996 173.49 251.731 172.697 252.68 172.129C253.635 171.561 254.754 171.277 256.038 171.277C256.902 171.277 257.706 171.416 258.45 171.694C259.2 171.967 259.854 172.379 260.41 172.93C260.973 173.481 261.41 174.174 261.723 175.01C262.035 175.839 262.192 176.811 262.192 177.924V178.922H251.138V176.672H258.774C258.774 176.149 258.66 175.686 258.433 175.282C258.206 174.879 257.89 174.564 257.487 174.336C257.089 174.103 256.626 173.987 256.098 173.987C255.547 173.987 255.058 174.115 254.632 174.37C254.211 174.62 253.882 174.959 253.643 175.385C253.405 175.805 253.283 176.274 253.277 176.791V178.93C253.277 179.578 253.396 180.138 253.635 180.609C253.879 181.081 254.223 181.444 254.666 181.7C255.109 181.956 255.635 182.084 256.243 182.084C256.646 182.084 257.015 182.027 257.351 181.913C257.686 181.799 257.973 181.629 258.211 181.402C258.45 181.174 258.632 180.896 258.757 180.566L262.115 180.788C261.944 181.595 261.595 182.299 261.067 182.902C260.544 183.498 259.868 183.964 259.038 184.299C258.214 184.629 257.263 184.794 256.183 184.794ZM275.453 175.18L272.129 175.385C272.072 175.101 271.95 174.845 271.763 174.618C271.575 174.385 271.328 174.2 271.021 174.064C270.72 173.922 270.359 173.851 269.939 173.851C269.376 173.851 268.902 173.97 268.515 174.209C268.129 174.441 267.936 174.754 267.936 175.146C267.936 175.459 268.061 175.723 268.311 175.939C268.561 176.155 268.99 176.328 269.598 176.459L271.967 176.936C273.24 177.197 274.189 177.618 274.814 178.197C275.439 178.777 275.751 179.538 275.751 180.481C275.751 181.339 275.498 182.092 274.993 182.74C274.493 183.388 273.805 183.893 272.93 184.257C272.061 184.615 271.058 184.794 269.922 184.794C268.189 184.794 266.808 184.433 265.78 183.711C264.757 182.984 264.158 181.995 263.981 180.745L267.552 180.558C267.66 181.086 267.922 181.49 268.336 181.768C268.751 182.041 269.283 182.177 269.93 182.177C270.567 182.177 271.078 182.055 271.464 181.811C271.856 181.561 272.055 181.24 272.061 180.848C272.055 180.518 271.916 180.248 271.643 180.038C271.371 179.822 270.95 179.657 270.382 179.544L268.115 179.092C266.836 178.836 265.885 178.393 265.26 177.763C264.64 177.132 264.331 176.328 264.331 175.351C264.331 174.51 264.558 173.785 265.013 173.177C265.473 172.569 266.118 172.101 266.947 171.771C267.783 171.441 268.76 171.277 269.879 171.277C271.533 171.277 272.834 171.626 273.783 172.325C274.737 173.024 275.294 173.976 275.453 175.18ZM278.037 184.538V171.447H281.668V184.538H278.037ZM279.861 169.76C279.322 169.76 278.859 169.581 278.472 169.223C278.091 168.859 277.901 168.424 277.901 167.919C277.901 167.419 278.091 166.99 278.472 166.632C278.859 166.268 279.322 166.086 279.861 166.086C280.401 166.086 280.861 166.268 281.242 166.632C281.628 166.99 281.822 167.419 281.822 167.919C281.822 168.424 281.628 168.859 281.242 169.223C280.861 169.581 280.401 169.76 279.861 169.76ZM290.474 189.72C289.298 189.72 288.29 189.558 287.449 189.234C286.613 188.916 285.949 188.481 285.454 187.93C284.96 187.379 284.639 186.76 284.491 186.072L287.849 185.62C287.952 185.882 288.113 186.126 288.335 186.353C288.557 186.581 288.849 186.763 289.213 186.899C289.582 187.041 290.031 187.112 290.56 187.112C291.349 187.112 292 186.919 292.511 186.532C293.028 186.152 293.287 185.513 293.287 184.615V182.22H293.133C292.974 182.584 292.736 182.927 292.417 183.251C292.099 183.575 291.69 183.839 291.19 184.044C290.69 184.248 290.094 184.351 289.4 184.351C288.417 184.351 287.523 184.123 286.716 183.669C285.915 183.209 285.275 182.507 284.798 181.564C284.327 180.615 284.091 179.416 284.091 177.967C284.091 176.484 284.332 175.245 284.815 174.251C285.298 173.257 285.94 172.513 286.741 172.018C287.548 171.524 288.432 171.277 289.392 171.277C290.125 171.277 290.738 171.402 291.233 171.652C291.727 171.896 292.125 172.203 292.426 172.572C292.733 172.936 292.969 173.294 293.133 173.646H293.27V171.447H296.875V184.666C296.875 185.78 296.602 186.711 296.057 187.461C295.511 188.211 294.756 188.774 293.79 189.149C292.829 189.53 291.724 189.72 290.474 189.72ZM290.551 181.623C291.136 181.623 291.631 181.478 292.034 181.189C292.443 180.893 292.756 180.473 292.971 179.927C293.193 179.376 293.304 178.717 293.304 177.95C293.304 177.183 293.196 176.518 292.98 175.956C292.764 175.388 292.452 174.947 292.042 174.635C291.633 174.322 291.136 174.166 290.551 174.166C289.954 174.166 289.452 174.328 289.042 174.652C288.633 174.97 288.324 175.413 288.113 175.981C287.903 176.549 287.798 177.206 287.798 177.95C287.798 178.706 287.903 179.359 288.113 179.91C288.329 180.456 288.639 180.879 289.042 181.18C289.452 181.476 289.954 181.623 290.551 181.623ZM303.395 176.97V184.538H299.764V171.447H303.224V173.757H303.378C303.667 172.995 304.153 172.393 304.835 171.95C305.517 171.501 306.344 171.277 307.315 171.277C308.224 171.277 309.017 171.476 309.693 171.873C310.369 172.271 310.895 172.839 311.27 173.578C311.645 174.311 311.832 175.186 311.832 176.203V184.538H308.202V176.851C308.207 176.049 308.003 175.424 307.588 174.976C307.173 174.521 306.602 174.294 305.875 174.294C305.386 174.294 304.954 174.399 304.579 174.609C304.21 174.819 303.92 175.126 303.71 175.53C303.506 175.927 303.4 176.407 303.395 176.97ZM320.317 184.538V167.084H324.007V174.285H331.498V167.084H335.18V184.538H331.498V177.328H324.007V184.538H320.317ZM344.121 184.794C342.774 184.794 341.615 184.521 340.643 183.976C339.677 183.424 338.933 182.646 338.41 181.64C337.888 180.629 337.626 179.433 337.626 178.052C337.626 176.706 337.888 175.524 338.41 174.507C338.933 173.49 339.669 172.697 340.618 172.129C341.572 171.561 342.692 171.277 343.976 171.277C344.839 171.277 345.643 171.416 346.388 171.694C347.138 171.967 347.791 172.379 348.348 172.93C348.91 173.481 349.348 174.174 349.66 175.01C349.973 175.839 350.129 176.811 350.129 177.924V178.922H339.075V176.672H346.711C346.711 176.149 346.598 175.686 346.371 175.282C346.143 174.879 345.828 174.564 345.425 174.336C345.027 174.103 344.564 173.987 344.035 173.987C343.484 173.987 342.996 174.115 342.569 174.37C342.149 174.62 341.819 174.959 341.581 175.385C341.342 175.805 341.22 176.274 341.214 176.791V178.93C341.214 179.578 341.334 180.138 341.572 180.609C341.817 181.081 342.16 181.444 342.604 181.7C343.047 181.956 343.572 182.084 344.18 182.084C344.584 182.084 344.953 182.027 345.288 181.913C345.623 181.799 345.91 181.629 346.149 181.402C346.388 181.174 346.569 180.896 346.694 180.566L350.052 180.788C349.882 181.595 349.533 182.299 349.004 182.902C348.481 183.498 347.805 183.964 346.976 184.299C346.152 184.629 345.2 184.794 344.121 184.794ZM352.498 184.538V171.447H356.018V173.731H356.155C356.393 172.919 356.794 172.305 357.356 171.89C357.919 171.47 358.567 171.26 359.3 171.26C359.481 171.26 359.677 171.271 359.888 171.294C360.098 171.316 360.283 171.348 360.442 171.388V174.609C360.271 174.558 360.035 174.513 359.734 174.473C359.433 174.433 359.158 174.413 358.908 174.413C358.373 174.413 357.896 174.53 357.476 174.763C357.061 174.99 356.731 175.308 356.487 175.717C356.248 176.126 356.129 176.598 356.129 177.132V184.538H352.498ZM367.675 184.794C366.329 184.794 365.17 184.521 364.198 183.976C363.232 183.424 362.488 182.646 361.965 181.64C361.442 180.629 361.181 179.433 361.181 178.052C361.181 176.706 361.442 175.524 361.965 174.507C362.488 173.49 363.224 172.697 364.172 172.129C365.127 171.561 366.246 171.277 367.53 171.277C368.394 171.277 369.198 171.416 369.942 171.694C370.692 171.967 371.346 172.379 371.903 172.93C372.465 173.481 372.903 174.174 373.215 175.01C373.528 175.839 373.684 176.811 373.684 177.924V178.922H362.63V176.672H370.266C370.266 176.149 370.153 175.686 369.925 175.282C369.698 174.879 369.383 174.564 368.979 174.336C368.582 174.103 368.118 173.987 367.59 173.987C367.039 173.987 366.55 174.115 366.124 174.37C365.704 174.62 365.374 174.959 365.135 175.385C364.897 175.805 364.775 176.274 364.769 176.791V178.93C364.769 179.578 364.888 180.138 365.127 180.609C365.371 181.081 365.715 181.444 366.158 181.7C366.601 181.956 367.127 182.084 367.735 182.084C368.138 182.084 368.508 182.027 368.843 181.913C369.178 181.799 369.465 181.629 369.704 181.402C369.942 181.174 370.124 180.896 370.249 180.566L373.607 180.788C373.437 181.595 373.087 182.299 372.559 182.902C372.036 183.498 371.36 183.964 370.53 184.299C369.707 184.629 368.755 184.794 367.675 184.794Z" fill="#2D3748"/>
<path d="M286.705 294.297H288.801L291.608 301.148H291.719L294.526 294.297H296.621V303.751H294.978V297.256H294.89L292.277 303.724H291.049L288.436 297.242H288.349V303.751H286.705V294.297ZM300.453 303.894C300.004 303.894 299.599 303.814 299.239 303.654C298.882 303.491 298.599 303.251 298.39 302.934C298.183 302.617 298.08 302.226 298.08 301.762C298.08 301.361 298.154 301.031 298.302 300.769C298.45 300.507 298.651 300.298 298.907 300.141C299.162 299.984 299.45 299.866 299.77 299.786C300.093 299.703 300.427 299.643 300.772 299.606C301.187 299.563 301.524 299.524 301.783 299.49C302.041 299.453 302.229 299.398 302.346 299.324C302.466 299.247 302.526 299.129 302.526 298.969V298.941C302.526 298.593 302.423 298.324 302.217 298.133C302.01 297.942 301.713 297.847 301.326 297.847C300.916 297.847 300.592 297.936 300.352 298.115C300.115 298.293 299.955 298.504 299.871 298.747L298.311 298.525C298.434 298.095 298.637 297.734 298.92 297.445C299.204 297.153 299.55 296.934 299.959 296.79C300.368 296.642 300.821 296.568 301.316 296.568C301.658 296.568 301.998 296.608 302.337 296.688C302.675 296.768 302.984 296.9 303.265 297.085C303.545 297.267 303.769 297.514 303.939 297.828C304.111 298.142 304.197 298.535 304.197 299.006V303.751H302.591V302.777H302.535C302.434 302.974 302.29 303.159 302.106 303.331C301.924 303.5 301.695 303.637 301.418 303.742C301.144 303.844 300.822 303.894 300.453 303.894ZM300.887 302.666C301.223 302.666 301.513 302.6 301.76 302.468C302.006 302.332 302.195 302.154 302.327 301.932C302.463 301.711 302.531 301.469 302.531 301.208V300.372C302.478 300.415 302.389 300.455 302.263 300.492C302.14 300.529 302.001 300.561 301.847 300.589C301.693 300.617 301.541 300.641 301.39 300.663C301.239 300.684 301.109 300.703 300.998 300.718C300.749 300.752 300.525 300.808 300.328 300.884C300.132 300.961 299.976 301.069 299.862 301.208C299.748 301.343 299.691 301.518 299.691 301.734C299.691 302.042 299.804 302.274 300.028 302.431C300.253 302.588 300.539 302.666 300.887 302.666ZM308.971 303.89C308.263 303.89 307.655 303.734 307.147 303.424C306.642 303.113 306.253 302.683 305.979 302.136C305.708 301.585 305.573 300.951 305.573 300.234C305.573 299.513 305.711 298.878 305.988 298.327C306.265 297.773 306.656 297.342 307.161 297.034C307.669 296.723 308.269 296.568 308.961 296.568C309.537 296.568 310.046 296.674 310.489 296.887C310.936 297.096 311.291 297.393 311.556 297.778C311.82 298.159 311.971 298.605 312.008 299.116H310.411C310.346 298.775 310.192 298.49 309.949 298.262C309.709 298.031 309.388 297.916 308.984 297.916C308.643 297.916 308.343 298.008 308.084 298.193C307.826 298.375 307.624 298.636 307.479 298.978C307.338 299.319 307.267 299.729 307.267 300.206C307.267 300.689 307.338 301.105 307.479 301.452C307.621 301.797 307.819 302.063 308.075 302.251C308.333 302.436 308.637 302.528 308.984 302.528C309.231 302.528 309.451 302.482 309.645 302.389C309.841 302.294 310.006 302.157 310.138 301.979C310.271 301.8 310.362 301.583 310.411 301.328H312.008C311.968 301.829 311.82 302.274 311.565 302.662C311.31 303.046 310.962 303.348 310.522 303.567C310.082 303.782 309.565 303.89 308.971 303.89ZM313.454 303.751V294.297H315.125V297.833H315.195C315.281 297.661 315.402 297.477 315.559 297.284C315.716 297.087 315.929 296.919 316.196 296.78C316.464 296.639 316.806 296.568 317.221 296.568C317.769 296.568 318.263 296.708 318.703 296.988C319.146 297.265 319.497 297.676 319.756 298.221C320.017 298.762 320.148 299.427 320.148 300.215C320.148 300.994 320.02 301.655 319.765 302.2C319.51 302.745 319.162 303.16 318.722 303.447C318.282 303.733 317.783 303.876 317.226 303.876C316.82 303.876 316.483 303.808 316.215 303.673C315.947 303.537 315.732 303.374 315.569 303.183C315.409 302.99 315.284 302.806 315.195 302.634H315.098V303.751H313.454ZM315.093 300.206C315.093 300.664 315.158 301.066 315.287 301.411C315.419 301.755 315.609 302.025 315.855 302.219C316.104 302.409 316.406 302.505 316.76 302.505C317.129 302.505 317.438 302.406 317.688 302.209C317.937 302.009 318.125 301.737 318.251 301.392C318.38 301.044 318.445 300.649 318.445 300.206C318.445 299.766 318.382 299.375 318.255 299.033C318.129 298.692 317.941 298.424 317.692 298.23C317.443 298.036 317.132 297.939 316.76 297.939C316.403 297.939 316.1 298.033 315.85 298.221C315.601 298.408 315.412 298.672 315.282 299.01C315.156 299.349 315.093 299.747 315.093 300.206ZM295.583 315.89C294.891 315.89 294.291 315.737 293.783 315.433C293.275 315.128 292.881 314.702 292.601 314.154C292.324 313.606 292.186 312.966 292.186 312.234C292.186 311.501 292.324 310.859 292.601 310.308C292.881 309.758 293.275 309.33 293.783 309.025C294.291 308.72 294.891 308.568 295.583 308.568C296.276 308.568 296.876 308.72 297.384 309.025C297.892 309.33 298.284 309.758 298.561 310.308C298.841 310.859 298.981 311.501 298.981 312.234C298.981 312.966 298.841 313.606 298.561 314.154C298.284 314.702 297.892 315.128 297.384 315.433C296.876 315.737 296.276 315.89 295.583 315.89ZM295.593 314.551C295.968 314.551 296.282 314.448 296.534 314.242C296.787 314.032 296.974 313.752 297.098 313.401C297.224 313.051 297.287 312.66 297.287 312.229C297.287 311.795 297.224 311.403 297.098 311.052C296.974 310.698 296.787 310.416 296.534 310.207C296.282 309.998 295.968 309.893 295.593 309.893C295.208 309.893 294.888 309.998 294.632 310.207C294.38 310.416 294.191 310.698 294.064 311.052C293.941 311.403 293.88 311.795 293.88 312.229C293.88 312.66 293.941 313.051 294.064 313.401C294.191 313.752 294.38 314.032 294.632 314.242C294.888 314.448 295.208 314.551 295.593 314.551ZM303.492 315.89C302.8 315.89 302.2 315.737 301.692 315.433C301.184 315.128 300.79 314.702 300.51 314.154C300.233 313.606 300.095 312.966 300.095 312.234C300.095 311.501 300.233 310.859 300.51 310.308C300.79 309.758 301.184 309.33 301.692 309.025C302.2 308.72 302.8 308.568 303.492 308.568C304.185 308.568 304.785 308.72 305.293 309.025C305.801 309.33 306.193 309.758 306.47 310.308C306.75 310.859 306.89 311.501 306.89 312.234C306.89 312.966 306.75 313.606 306.47 314.154C306.193 314.702 305.801 315.128 305.293 315.433C304.785 315.737 304.185 315.89 303.492 315.89ZM303.502 314.551C303.877 314.551 304.191 314.448 304.443 314.242C304.696 314.032 304.884 313.752 305.007 313.401C305.133 313.051 305.196 312.66 305.196 312.229C305.196 311.795 305.133 311.403 305.007 311.052C304.884 310.698 304.696 310.416 304.443 310.207C304.191 309.998 303.877 309.893 303.502 309.893C303.117 309.893 302.797 309.998 302.541 310.207C302.289 310.416 302.1 310.698 301.974 311.052C301.851 311.403 301.789 311.795 301.789 312.229C301.789 312.66 301.851 313.051 301.974 313.401C302.1 313.752 302.289 314.032 302.541 314.242C302.797 314.448 303.117 314.551 303.502 314.551ZM309.832 313.526L309.827 311.509H310.095L312.644 308.66H314.596L311.462 312.15H311.115L309.832 313.526ZM308.309 315.751V306.297H309.98V315.751H308.309ZM312.759 315.751L310.451 312.524L311.577 311.347L314.758 315.751H312.759ZM293.605 327.751V318.297H297.151C297.877 318.297 298.486 318.432 298.979 318.703C299.474 318.974 299.848 319.346 300.101 319.82C300.356 320.291 300.484 320.827 300.484 321.427C300.484 322.033 300.356 322.572 300.101 323.042C299.845 323.513 299.468 323.884 298.969 324.155C298.471 324.423 297.857 324.557 297.128 324.557H294.778V323.149H296.897C297.321 323.149 297.669 323.075 297.94 322.927C298.211 322.779 298.411 322.576 298.54 322.318C298.673 322.059 298.739 321.762 298.739 321.427C298.739 321.091 298.673 320.796 298.54 320.54C298.411 320.285 298.209 320.086 297.935 319.945C297.665 319.8 297.315 319.728 296.887 319.728H295.318V327.751H293.605ZM301.897 327.751V320.66H303.518V321.842H303.592C303.721 321.433 303.943 321.117 304.257 320.896C304.574 320.671 304.935 320.559 305.341 320.559C305.434 320.559 305.537 320.563 305.651 320.573C305.768 320.579 305.865 320.59 305.942 320.605V322.142C305.871 322.118 305.758 322.096 305.605 322.078C305.454 322.056 305.308 322.045 305.166 322.045C304.861 322.045 304.587 322.111 304.344 322.244C304.104 322.373 303.915 322.553 303.776 322.784C303.638 323.015 303.569 323.281 303.569 323.583V327.751H301.897ZM309.853 327.89C309.16 327.89 308.56 327.737 308.052 327.433C307.545 327.128 307.151 326.702 306.871 326.154C306.594 325.606 306.455 324.966 306.455 324.234C306.455 323.501 306.594 322.859 306.871 322.308C307.151 321.758 307.545 321.33 308.052 321.025C308.56 320.72 309.16 320.568 309.853 320.568C310.545 320.568 311.145 320.72 311.653 321.025C312.161 321.33 312.553 321.758 312.83 322.308C313.111 322.859 313.251 323.501 313.251 324.234C313.251 324.966 313.111 325.606 312.83 326.154C312.553 326.702 312.161 327.128 311.653 327.433C311.145 327.737 310.545 327.89 309.853 327.89ZM309.862 326.551C310.238 326.551 310.551 326.448 310.804 326.242C311.056 326.032 311.244 325.752 311.367 325.401C311.493 325.051 311.556 324.66 311.556 324.229C311.556 323.795 311.493 323.403 311.367 323.052C311.244 322.698 311.056 322.416 310.804 322.207C310.551 321.998 310.238 321.893 309.862 321.893C309.477 321.893 309.157 321.998 308.902 322.207C308.649 322.416 308.46 322.698 308.334 323.052C308.211 323.403 308.149 323.795 308.149 324.229C308.149 324.66 308.211 325.051 308.334 325.401C308.46 325.752 308.649 326.032 308.902 326.242C309.157 326.448 309.477 326.551 309.862 326.551Z" fill="#A0AEC0"/>
<path d="M15 303.523C15 302.418 15.8954 301.523 17 301.523H588.912C590.016 301.523 590.912 302.418 590.912 303.523V311.391H15V303.523Z" fill="#A3ACB1"/>
<path d="M15 303.523C15 302.418 15.8954 301.523 17 301.523H588.912C590.016 301.523 590.912 302.418 590.912 303.523V311.391H15V303.523Z" fill="url(#paint0_linear_46_205)"/>
<path d="M15 311.391H590.912C568.3 315.767 545.322 317.969 522.291 317.969H77.3984C56.4259 317.969 35.5114 315.764 15 311.391Z" fill="#647279"/>
<path d="M15 311.391H590.912C568.3 315.767 545.322 317.969 522.291 317.969H77.3984C56.4259 317.969 35.5114 315.764 15 311.391Z" fill="url(#paint1_linear_46_205)"/>
<path fill-rule="evenodd" clip-rule="evenodd" d="M255.553 301.523C255.847 305.809 259.563 309.198 264.105 309.198H342.378C346.919 309.198 350.636 305.809 350.93 301.523H255.553Z" fill="#96A1A8"/>
<path fill-rule="evenodd" clip-rule="evenodd" d="M255.553 301.523C255.847 305.809 259.563 309.198 264.105 309.198H342.378C346.919 309.198 350.636 305.809 350.93 301.523H255.553Z" fill="url(#paint2_linear_46_205)"/>
<defs>
<filter id="filter0_f_46_205" x="0.709717" y="274.518" width="605.064" height="93.4822" filterUnits="userSpaceOnUse" color-interpolation-filters="sRGB">
<feFlood flood-opacity="0" result="BackgroundImageFix"/>
<feBlend mode="normal" in="SourceGraphic" in2="BackgroundImageFix" result="shape"/>
<feGaussianBlur stdDeviation="22" result="effect1_foregroundBlur_46_205"/>
</filter>
<linearGradient id="paint0_linear_46_205" x1="15" y1="306.457" x2="590.912" y2="306.457" gradientUnits="userSpaceOnUse">
<stop stop-color="#0D1012"/>
<stop offset="0.0295345" stop-color="#CAD4DB"/>
<stop offset="0.0625" stop-color="#242729"/>
<stop offset="0.133609" stop-color="#A3ACB1"/>
<stop offset="0.865967" stop-color="#A3ACB1"/>
<stop offset="0.941937" stop-color="#242729"/>
<stop offset="0.971275" stop-color="#CAD4DB"/>
<stop offset="0.996436" stop-color="#0D1012"/>
</linearGradient>
<linearGradient id="paint1_linear_46_205" x1="302.956" y1="311.391" x2="302.956" y2="317.969" gradientUnits="userSpaceOnUse">
<stop stop-color="#7A7F83"/>
<stop offset="1" stop-color="#0B0B0E"/>
</linearGradient>
<linearGradient id="paint2_linear_46_205" x1="264.962" y1="306.183" x2="343.235" y2="306.183" gradientUnits="userSpaceOnUse">
<stop stop-color="#3C3C3C"/>
<stop offset="0.317518" stop-color="#3C3C3C" stop-opacity="0"/>
<stop offset="0.660584" stop-color="#3C3C3C" stop-opacity="0"/>
<stop offset="1" stop-color="#444444"/>
</linearGradient>
</defs>
</svg>
