<svg width="20" height="20" viewBox="0 0 20 20" fill="none" xmlns="http://www.w3.org/2000/svg">
<path d="M18.9864 6.0245C19.2623 5.38641 19.4109 4.70306 19.4243 4.01091V3.9203C19.4089 3.17057 19.1773 2.44015 18.7559 1.81237C18.3345 1.1846 17.7402 0.684744 17.041 0.369836C16.3418 0.0549272 15.5657 -0.0623542 14.8012 0.0313718C14.0368 0.125098 13.3148 0.426057 12.7177 0.899914C11.8905 0.671259 11.0362 0.548293 10.1764 0.534112H9.99708C8.42531 0.537168 6.87626 0.899553 5.47476 1.59206C4.07326 2.28458 2.85851 3.28784 1.92842 4.52102C0.675387 6.18843 0 8.20065 0 10.2665C0 12.3323 0.675387 14.3445 1.92842 16.0119C2.85681 17.2477 4.07164 18.2529 5.47423 18.9459C6.87681 19.6388 8.42758 20 10.0005 20C11.5735 20 13.1242 19.6388 14.5268 18.9459C15.9294 18.2529 17.1443 17.2477 18.0726 16.0119C19.1469 14.5836 19.7997 12.8968 19.9608 11.1336C20.1218 9.37051 19.7849 7.59807 18.9864 6.00772V6.0245ZM2.78011 4.58142L2.94562 4.39013L3.13182 4.18542C3.19044 4.12166 3.24906 4.06125 3.31112 4.00084L3.50767 3.80955L3.69387 3.63839L3.90076 3.45381L4.0973 3.29608L4.31453 3.12493L4.51798 2.97727L4.74555 2.81954L4.95934 2.68194C5.0352 2.6316 5.1145 2.58462 5.19381 2.53763L5.41449 2.41346L5.63173 2.28258C5.70414 2.24566 5.78 2.20539 5.85586 2.17183C5.93172 2.13827 6.02482 2.09129 6.11102 2.05437L6.3386 1.95369L6.60066 1.84966L6.83168 1.7624L7.10753 1.67515L7.3558 1.60131L7.50752 1.56104C6.47307 2.44031 5.63173 3.86324 5.09382 5.69225C4.26153 5.449 3.46524 5.10154 2.72494 4.65861L2.78011 4.58142ZM2.31461 5.20228C3.12391 5.69368 3.99715 6.07743 4.91106 6.34331C4.61936 7.52437 4.4621 8.73309 4.44212 9.94764H0.704324C0.763002 8.25045 1.31673 6.60456 2.30082 5.20228H2.31461ZM0.704324 10.6188H4.42832C4.44786 11.8334 4.60512 13.0422 4.89727 14.2232C3.98308 14.4883 3.10974 14.8721 2.30082 15.3642C1.31673 13.9619 0.763002 12.316 0.704324 10.6188ZM7.3558 18.9685C7.25925 18.9417 7.1627 18.9081 7.06616 18.8779L6.85927 18.8141L6.57997 18.7101L6.36273 18.6262L6.09723 18.5054L5.87999 18.4081C5.79379 18.3678 5.70759 18.3242 5.62483 18.2772L5.41105 18.1664L5.16278 18.0221L4.95589 17.898L4.71797 17.7436C4.65245 17.6966 4.58349 17.653 4.51798 17.6026C4.45246 17.5523 4.36626 17.4952 4.2904 17.4382L4.09385 17.2872L3.88007 17.1093L3.69042 16.9449L3.48698 16.7569L3.30768 16.5824L3.11113 16.3811L2.94562 16.1965L2.75942 15.9817L2.7077 15.9146C3.4494 15.4742 4.24534 15.1269 5.07657 14.8809C5.63173 16.7032 6.48342 18.1429 7.50752 19.0054L7.3558 18.9685ZM9.64537 19.3041C8.02819 19.0826 6.54204 17.3207 5.72827 14.6695C7.00902 14.3511 8.32368 14.1799 9.64537 14.1594V19.3041ZM9.64537 13.5016C8.26757 13.5241 6.89727 13.7043 5.56276 14.0386C5.28564 12.9181 5.13647 11.7712 5.11795 10.6188H9.65571L9.64537 13.5016ZM9.64537 9.93086H5.11795C5.13749 8.77876 5.28548 7.63212 5.55932 6.51111C6.89704 6.8553 8.27229 7.04233 9.65571 7.06821L9.64537 9.93086ZM9.64537 6.37016C8.32369 6.35238 7.00883 6.18227 5.72827 5.86341C6.54204 3.22896 8.04543 1.46707 9.65571 1.24558L9.64537 6.37016ZM17.1623 8.86366C17.2485 8.76298 17.3382 8.65894 17.4244 8.54819L17.4968 8.45423C17.5623 8.37368 17.6244 8.2965 17.6864 8.2126L17.783 8.07836L17.9451 7.85686L18.0451 7.7394C18.0968 7.66557 18.1451 7.59174 18.1933 7.51791L18.2968 7.35011C18.345 7.27963 18.3899 7.20245 18.4312 7.12861C18.4726 7.05478 18.5002 7.01451 18.5312 6.9541C18.5623 6.8937 18.5761 6.88363 18.5933 6.85007C19.0104 7.8404 19.2439 8.89481 19.2829 9.96442H16.1796L16.2106 9.93086L16.3244 9.81675L16.4279 9.71272L16.5555 9.57848L16.6658 9.45095L16.8106 9.28987L16.9141 9.17912L17.0968 8.96769L17.1623 8.86366ZM13.5314 3.93372C13.5323 3.47503 13.7202 3.03543 14.0538 2.7114C14.3874 2.38737 14.8394 2.20539 15.3107 2.20539C15.383 2.20038 15.4556 2.20038 15.5279 2.20539C15.8641 2.24249 16.1824 2.37249 16.4452 2.58004C16.7079 2.78759 16.9041 3.06401 17.0106 3.37663C17.0742 3.55355 17.1068 3.73959 17.1072 3.92701C17.1131 4.38628 16.9313 4.82904 16.6019 5.15788C16.2724 5.48673 15.8222 5.67472 15.3503 5.68051C14.8784 5.68629 14.4235 5.5094 14.0856 5.18873C13.7478 4.86807 13.5546 4.42991 13.5487 3.97064L13.5314 3.93372ZM10.3453 1.24894C10.8936 1.32884 11.4095 1.55147 11.8384 1.89328C11.7522 2.03101 11.6739 2.1733 11.6039 2.31949C11.5922 2.34008 11.5818 2.36138 11.5729 2.38326C11.5068 2.52646 11.4492 2.67325 11.4005 2.82289L11.3763 2.90679C11.325 3.06051 11.2847 3.2175 11.2557 3.37663C11.254 3.40009 11.254 3.42364 11.2557 3.4471C11.2275 3.61247 11.2113 3.77956 11.2074 3.94714V4.03104C11.2092 4.19477 11.2196 4.35831 11.2384 4.52102V4.60827C11.2591 4.76936 11.2901 4.94387 11.3281 5.09489C11.3281 5.12845 11.3281 5.15865 11.3522 5.19221C11.397 5.36337 11.4453 5.52781 11.5074 5.70568C11.511 5.72199 11.5168 5.73779 11.5246 5.75266C11.5832 5.92046 11.6556 6.08826 11.7315 6.26277L11.7522 6.31311C11.2936 6.36009 10.8212 6.38023 10.3453 6.3903V1.24894ZM10.3453 7.05143C10.9315 7.05143 11.5143 7.00444 12.0694 6.94403L12.1453 7.08499C12.166 7.11855 12.1867 7.14875 12.2039 7.18231L12.3487 7.41723L12.4246 7.53133C12.4694 7.60181 12.5142 7.67228 12.5625 7.7394L12.6453 7.85686L12.7797 8.04815L12.8694 8.16897L13.0039 8.34683L13.097 8.46429C13.1383 8.52135 13.1832 8.57504 13.2245 8.62874L13.3211 8.7462L13.4452 8.89386L13.5452 9.00796C13.5832 9.05495 13.6211 9.09857 13.6625 9.1422C13.7038 9.18583 13.728 9.21939 13.7625 9.25631L13.8659 9.37041L13.9693 9.48451L14.0555 9.57177L14.1693 9.69258L14.4107 9.93757H10.3453V7.05143ZM10.3453 10.6155H14.8831C14.8661 11.768 14.7169 12.915 14.4383 14.0352C13.0997 13.7058 11.7259 13.5312 10.3453 13.515V10.6155ZM10.3453 19.3175V14.1762C11.6636 14.1975 12.9747 14.3687 14.2521 14.6863C13.4556 17.3375 11.9625 19.0994 10.3453 19.3209V19.3175ZM17.2416 15.9616L17.0554 16.1763L16.8899 16.3609L16.6934 16.5623L16.5141 16.7368L16.3106 16.9247L16.121 17.0892L15.9072 17.267L15.7107 17.4181C15.6348 17.4751 15.5624 17.5288 15.4831 17.5825C15.4038 17.6362 15.3486 17.6765 15.2831 17.7234L15.0452 17.8778L14.8383 18.002L14.59 18.1463L14.3762 18.257C14.2935 18.304 14.2073 18.3477 14.1211 18.3879L13.9038 18.4853L13.6349 18.6061L13.4211 18.69L13.1418 18.794L12.9246 18.8645C12.828 18.8947 12.7315 18.9282 12.6349 18.9551L12.4935 18.992C13.528 18.1127 14.3693 16.6898 14.9245 14.8608C15.7557 15.1068 16.5517 15.4541 17.2934 15.8944L17.2416 15.9616ZM17.7002 15.3642C16.8913 14.8721 16.018 14.4883 15.1038 14.2232C15.3959 13.0422 15.5532 11.8334 15.5727 10.6188H19.2967C19.2381 12.316 18.6843 13.9619 17.7002 15.3642Z" fill="#1087FF"/>
</svg>
